<svg version="1.1" xmlns="http://www.w3.org/2000/svg" xmlns:xlink="http://www.w3.org/1999/xlink" data-browser="Chrome[42.0]" preserveAspectRatio="xMidYMid meet" viewBox="0 0 268 132"><g id="logo__item--logo_0" class="logo__item">
    <g class="logo__item__inner" transform="translate(-9.442864532797444 -21) scale(1.8041784902395857 1.8041784902395857) rotate(0 0 0)">
        
<g>
	<linearGradient id="SVGID_1_" gradientUnits="userSpaceOnUse" x1="48.8052" y1="-18.3623" x2="48.8052" y2="132.3163">
		<stop offset="0" style="stop-color:#00ADEE"></stop>
		<stop offset="0.0016" style="stop-color:#01ADEE"></stop>
		<stop offset="0.0526" style="stop-color:#15ABE6"></stop>
		<stop offset="0.1029" style="stop-color:#22A9E2"></stop>
		<stop offset="0.1515" style="stop-color:#26A9E0"></stop>
		<stop offset="0.3273" style="stop-color:#1B75BB"></stop>
		<stop offset="0.5212" style="stop-color:#2B388F"></stop>
		<stop offset="0.7576" style="stop-color:#1C1651"></stop>
		<stop offset="1" style="stop-color:#120742"></stop>
	</linearGradient>
	<path fill="#00d6ff" d="M73.479,35.216c-55.841,68.239-52.906,15.503-52.455,9.88c-0.859,0.032-1.727,0.135-2.598,0.333   C10.72,47.151,5.873,54.795,7.596,62.505c1.726,7.706,9.374,12.554,17.079,10.831c0.539-0.124,1.057-0.273,1.564-0.447   c1.977,7.353,9.425,11.906,16.93,10.228c5.298-1.183,9.25-5.175,10.636-10.054c5.101,4.506,12.213,6.589,19.369,4.989   c11.849-2.653,19.306-14.406,16.652-26.26C87.933,43.326,81.383,37.113,73.479,35.216z"></path>
	<linearGradient id="logo__item--logo_0__1" gradientUnits="objectBoundingBox" x1="0.5" y1="0" x2="0.5" y2="1"><stop offset="0" style="stop-color:#666666"></stop><stop offset="1" style="stop-color:#666666"></stop></linearGradient><path fill="#addae5" d="M74.155,32.42c1.568-2.53,2.199-5.643,1.493-8.779c-1.422-6.36-7.734-10.359-14.09-8.934   c-5.651,1.263-9.433,6.399-9.199,11.987c-3.833-2.863-8.843-4.103-13.875-2.975c-6.712,1.501-11.595,6.788-12.914,13.108   C25.784,76.805,56.914,50.229,74.155,32.42z M58.794,36.732c0.024,0.012,0.053,0.024,0.072,0.036   c-0.016,0.012-0.04,0.02-0.06,0.032C58.803,36.78,58.794,36.757,58.794,36.732z"></path>
	<path fill="#00d6ff" d="M85.338,20.053c0,0-4.565,5.536-11.179,12.364l-1.369,2.669c0,0,0.332,0.067,0.677,0.146"></path>
	<circle fill="#00d6ff" cx="86.976" cy="19.213" r="5.499"></circle>
	<circle fill="#00d6ff" cx="86.976" cy="19.213" r="5.499"></circle>
	<path fill="#00d6ff" d="M91.571,18.537c0,2.226-1.802,4.031-4.034,4.031c-2.222,0-4.031-1.806-4.031-4.031   c0-2.229,1.81-4.035,4.031-4.035C89.77,14.501,91.571,16.307,91.571,18.537z"></path>
</g>

    </g>
</g><g id="logo__item--business" class="logo__item">
                <g class="logo__item__inner" transform="translate(103.328125 94.6753547376818) scale(1 1) rotate(0 0 0)">
                    <text dy="" dominant-baseline="auto" alignment-baseline="auto" font-family="'Montserrat-Bold'" font-size="32px" fill="#ff2800" letter-spacing="4" font-weight="normal" font-style="normal">GoCloud</text>
                </g>
            </g></svg>